<svg width="24" height="16" viewBox="0 0 24 16" fill="none" xmlns="http://www.w3.org/2000/svg">
<path d="M20.1074 6.52634C20.0243 6.50281 19.95 6.4572 19.8933 6.3949C19.8366 6.3326 19.7999 6.25622 19.7875 6.17476C19.6388 4.6276 18.9358 3.17561 17.7957 2.06091C16.6557 0.946211 15.1475 0.236186 13.5227 0.049242C11.8979 -0.137702 10.2547 0.209734 8.86708 1.03361C7.47949 1.85749 6.43139 3.10801 5.89756 4.57663C5.86223 4.64511 5.807 4.70256 5.73838 4.74221C5.66977 4.78185 5.59063 4.80203 5.51032 4.80036C4.73648 4.84968 3.98045 5.0432 3.2854 5.36986C2.59035 5.69652 1.96989 6.14994 1.45944 6.70421C0.428545 7.82362 -0.0916547 9.2859 0.0132789 10.7694C0.118212 12.2529 0.839684 13.636 2.01898 14.6145C3.19827 15.5931 4.73879 16.0869 6.30163 15.9873H18.9793C20.2153 15.9802 21.4057 15.5433 22.3251 14.7591C23.2444 13.9749 23.8289 12.8979 23.9679 11.7321C24.1069 10.5663 23.7908 9.39261 23.0793 8.43323C22.3678 7.47384 21.3104 6.79539 20.1074 6.52634ZM15.4269 7.7569C15.5478 7.93887 15.6148 8.14836 15.621 8.36339C15.6272 8.57843 15.5723 8.79108 15.4621 8.97905C15.3519 9.16702 15.1905 9.32337 14.9947 9.4317C14.7989 9.54004 14.576 9.59636 14.3494 9.59475H13.9285C13.8168 9.59475 13.7098 9.63685 13.6308 9.71177C13.5519 9.7867 13.5076 9.88832 13.5076 9.99429V12.3915C13.5076 12.7094 13.3745 13.0142 13.1377 13.239C12.9009 13.4638 12.5797 13.5901 12.2448 13.5901C11.9099 13.5901 11.5888 13.4638 11.352 13.239C11.1151 13.0142 10.9821 12.7094 10.9821 12.3915V9.99429C10.9821 9.88832 10.9378 9.7867 10.8588 9.71177C10.7799 9.63685 10.6728 9.59475 10.5612 9.59475H10.1403C9.91368 9.59636 9.69078 9.54004 9.49499 9.4317C9.2992 9.32337 9.13774 9.16702 9.02753 8.97905C8.91733 8.79108 8.86245 8.57843 8.86865 8.36339C8.87485 8.14836 8.9419 7.93887 9.06278 7.7569L11.1673 4.56064C11.2906 4.39891 11.4526 4.26724 11.6399 4.17643C11.8272 4.08563 12.0345 4.03828 12.2448 4.03828C12.4552 4.03828 12.6625 4.08563 12.8498 4.17643C13.0371 4.26724 13.199 4.39891 13.3224 4.56064L15.4269 7.7569Z" fill="white" fill-opacity="0.4"/>
</svg>
