<svg width="14" height="16" viewBox="0 0 14 16" fill="none" xmlns="http://www.w3.org/2000/svg">
<path d="M12.36 0H1.64C1.42411 0.000524649 1.21044 0.0435677 1.01118 0.126671C0.811918 0.209775 0.63098 0.331312 0.478691 0.484343C0.326403 0.637375 0.205748 0.818903 0.123615 1.01856C0.0414817 1.21822 -0.000521049 1.43211 4.87844e-06 1.648V12.464C-0.000521049 12.6799 0.0414817 12.8938 0.123615 13.0934C0.205748 13.2931 0.326403 13.4746 0.478691 13.6277C0.63098 13.7807 0.811918 13.9022 1.01118 13.9853C1.21044 14.0684 1.42411 14.1115 1.64 14.112H10.712L10.288 12.632L11.312 13.584L12.28 14.484L14 16V1.648C14.0005 1.43211 13.9585 1.21822 13.8764 1.01856C13.7943 0.818903 13.6736 0.637375 13.5213 0.484343C13.369 0.331312 13.1881 0.209775 12.9888 0.126671C12.7896 0.0435677 12.5759 0.000524649 12.36 0V0ZM9.27201 10.448C9.27201 10.448 8.98401 10.1 8.74401 9.8C9.3239 9.6635 9.83681 9.32627 10.192 8.848C9.90415 9.03957 9.59551 9.19792 9.27201 9.32C8.89984 9.47886 8.51061 9.59429 8.11201 9.664C7.42685 9.79024 6.72416 9.78753 6.04 9.656C5.63834 9.57741 5.2447 9.46226 4.864 9.312C4.54362 9.18857 4.23778 9.03029 3.952 8.84C4.29436 9.30824 4.78956 9.64215 5.35201 9.784C5.11201 10.084 4.816 10.448 4.816 10.448C4.34078 10.4608 3.86969 10.3566 3.44421 10.1446C3.01872 9.93255 2.65189 9.61916 2.376 9.232C2.40197 7.61017 2.79587 6.01541 3.528 4.568C4.17229 4.06199 4.95777 3.76848 5.776 3.728L5.856 3.828C5.08764 4.01915 4.37071 4.37693 3.756 4.876C3.756 4.876 3.932 4.776 4.228 4.644C4.80328 4.38289 5.41615 4.21415 6.044 4.144C6.08879 4.13473 6.13429 4.12938 6.18 4.128C6.7143 4.05448 7.25547 4.04508 7.792 4.1C8.63708 4.19651 9.45511 4.45741 10.2 4.868C9.61506 4.39357 8.93611 4.04864 8.208 3.856L8.32 3.728C9.13824 3.76848 9.92372 4.06199 10.568 4.568C11.3001 6.01541 11.694 7.61017 11.72 9.232C11.4419 9.61877 11.0735 9.93173 10.6468 10.1437C10.2202 10.3556 9.74823 10.4601 9.27201 10.448Z" fill="white"/>
</svg>
