<svg width="20" height="20" viewBox="0 0 20 20" fill="none" xmlns="http://www.w3.org/2000/svg">
<path d="M9.58301 20C6.16634 20 3.33301 17.1667 3.33301 13.75V4.58333C3.33301 2.08333 5.41634 0 7.91634 0C10.4163 0 12.4997 2.08333 12.4997 4.58333V12.9167C12.4997 14.5 11.1663 15.8333 9.58301 15.8333C7.99967 15.8333 6.66634 14.5 6.66634 12.9167V5.83333C6.66634 5.33333 6.99967 5 7.49967 5C7.99967 5 8.33301 5.33333 8.33301 5.83333V12.9167C8.33301 13.5833 8.91634 14.1667 9.58301 14.1667C10.2497 14.1667 10.833 13.5833 10.833 12.9167V4.58333C10.833 3 9.49967 1.66667 7.91634 1.66667C6.33301 1.66667 4.99967 3 4.99967 4.58333V13.75C4.99967 16.25 7.08301 18.3333 9.58301 18.3333C12.083 18.3333 14.1663 16.25 14.1663 13.75V3.33333C14.1663 2.83333 14.4997 2.5 14.9997 2.5C15.4997 2.5 15.833 2.83333 15.833 3.33333V13.75C15.833 17.1667 12.9997 20 9.58301 20Z" fill="white"/>
</svg>
