<svg width="17" height="17" viewBox="0 0 17 17" fill="none" xmlns="http://www.w3.org/2000/svg">
<path d="M14.5 2.21429H13.0714C12.9957 2.21429 12.923 2.18418 12.8694 2.1306C12.8158 2.07702 12.7857 2.00435 12.7857 1.92857V1.35714C12.7857 1.12981 12.6954 0.911797 12.5347 0.751051C12.3739 0.590306 12.1559 0.5 11.9286 0.5C11.7012 0.5 11.4832 0.590306 11.3225 0.751051C11.1617 0.911797 11.0714 1.12981 11.0714 1.35714V1.92857C11.0714 2.00435 11.0413 2.07702 10.9877 2.1306C10.9342 2.18418 10.8615 2.21429 10.7857 2.21429H6.21429C6.13851 2.21429 6.06584 2.18418 6.01226 2.1306C5.95867 2.07702 5.92857 2.00435 5.92857 1.92857V1.35714C5.92857 1.12981 5.83827 0.911797 5.67752 0.751051C5.51678 0.590306 5.29876 0.5 5.07143 0.5C4.8441 0.5 4.62608 0.590306 4.46534 0.751051C4.30459 0.911797 4.21429 1.12981 4.21429 1.35714V1.92857C4.21429 2.00435 4.18418 2.07702 4.1306 2.1306C4.07702 2.18418 4.00435 2.21429 3.92857 2.21429H2.5C1.97049 2.21729 1.46353 2.42896 1.0891 2.80339C0.714677 3.17781 0.503 3.68478 0.5 4.21429L0.5 14.5C0.503 15.0295 0.714677 15.5365 1.0891 15.9109C1.46353 16.2853 1.97049 16.497 2.5 16.5H14.5C15.0295 16.497 15.5365 16.2853 15.9109 15.9109C16.2853 15.5365 16.497 15.0295 16.5 14.5V4.21429C16.497 3.68478 16.2853 3.17781 15.9109 2.80339C15.5365 2.42896 15.0295 2.21729 14.5 2.21429ZM2.21429 4.21429C2.21429 4.13851 2.24439 4.06584 2.29797 4.01226C2.35155 3.95867 2.42422 3.92857 2.5 3.92857H3.92857C4.00435 3.92857 4.07702 3.95867 4.1306 4.01226C4.18418 4.06584 4.21429 4.13851 4.21429 4.21429V4.78571C4.21429 5.01304 4.30459 5.23106 4.46534 5.39181C4.62608 5.55255 4.8441 5.64286 5.07143 5.64286C5.29876 5.64286 5.51678 5.55255 5.67752 5.39181C5.83827 5.23106 5.92857 5.01304 5.92857 4.78571V4.21429C5.92857 4.13851 5.95867 4.06584 6.01226 4.01226C6.06584 3.95867 6.13851 3.92857 6.21429 3.92857H10.7857C10.8615 3.92857 10.9342 3.95867 10.9877 4.01226C11.0413 4.06584 11.0714 4.13851 11.0714 4.21429V4.78571C11.0714 5.01304 11.1617 5.23106 11.3225 5.39181C11.4832 5.55255 11.7012 5.64286 11.9286 5.64286C12.1559 5.64286 12.3739 5.55255 12.5347 5.39181C12.6954 5.23106 12.7857 5.01304 12.7857 4.78571V4.21429C12.7857 4.13851 12.8158 4.06584 12.8694 4.01226C12.923 3.95867 12.9957 3.92857 13.0714 3.92857H14.5C14.5758 3.92857 14.6484 3.95867 14.702 4.01226C14.7556 4.06584 14.7857 4.13851 14.7857 4.21429V6.5C14.7857 6.57578 14.7556 6.64845 14.702 6.70203C14.6484 6.75561 14.5758 6.78571 14.5 6.78571H2.5C2.42422 6.78571 2.35155 6.75561 2.29797 6.70203C2.24439 6.64845 2.21429 6.57578 2.21429 6.5V4.21429Z" fill="white"/>
</svg>
