<svg width="24" height="24" viewBox="0 0 24 24" fill="none" xmlns="http://www.w3.org/2000/svg">
<path d="M22.2933 6.85488C22.0542 6.69261 21.7765 6.59628 21.4883 6.5756C21.3686 6.57415 21.2523 6.61486 21.1597 6.6906L10.8591 16.9912C10.8022 17.0516 10.7642 17.1273 10.7496 17.2089C10.735 17.2906 10.7445 17.3748 10.777 17.4512C10.809 17.5246 10.8619 17.5871 10.929 17.6309C10.9962 17.6747 11.0747 17.6979 11.1548 17.6976H14.7855C15.4391 17.6976 16.0659 17.438 16.528 16.9758C16.9901 16.5137 17.2498 15.8869 17.2498 15.2333V14.6584C17.2504 14.5906 17.2671 14.524 17.2985 14.4641C17.3299 14.4041 17.3752 14.3524 17.4305 14.3134C17.4924 14.2852 17.5596 14.2707 17.6276 14.2707C17.6956 14.2707 17.7628 14.2852 17.8247 14.3134L20.7818 15.6112C21.0297 15.7052 21.2966 15.7379 21.5597 15.7065C21.8229 15.675 22.0746 15.5803 22.2933 15.4305C22.5155 15.2764 22.6963 15.0698 22.8195 14.8291C22.9427 14.5883 23.0046 14.3209 22.9997 14.0505V8.20201C22.9992 7.93715 22.9348 7.67632 22.8118 7.44176C22.6888 7.2072 22.5109 7.00585 22.2933 6.85488Z" fill="white"/>
<path d="M20.9955 3.37215C21.2131 3.13857 21.3316 2.82965 21.326 2.51044C21.3203 2.19124 21.191 1.88668 20.9653 1.66093C20.7395 1.43518 20.435 1.30587 20.1158 1.30024C19.7966 1.29461 19.4876 1.4131 19.2541 1.63074L16.2148 4.66999C16.1575 4.73155 16.0826 4.77403 16.0003 4.79166C15.9181 4.80929 15.8324 4.80122 15.7548 4.76856C15.4503 4.6301 15.12 4.55733 14.7855 4.55499H4.10711C3.45354 4.55499 2.82675 4.81461 2.36461 5.27675C1.90248 5.73889 1.64285 6.36568 1.64285 7.01924V15.2334C1.64477 15.6556 1.75442 16.0703 1.96141 16.4383C2.1684 16.8063 2.46588 17.1154 2.82569 17.3363C2.88029 17.3656 2.92682 17.4079 2.9612 17.4595C2.99558 17.5111 3.01675 17.5703 3.02283 17.632C3.03277 17.6945 3.0275 17.7585 3.00748 17.8185C2.98747 17.8786 2.95329 17.9329 2.90784 17.977L0.361438 20.5234C0.130701 20.7544 0.00109863 21.0675 0.00109863 21.3941C0.00109863 21.7206 0.130701 22.0337 0.361438 22.2648C0.592463 22.4955 0.905627 22.6251 1.23214 22.6251C1.55866 22.6251 1.87182 22.4955 2.10285 22.2648L20.9955 3.37215Z" fill="white"/>
</svg>
