<svg width="24" height="24" viewBox="0 0 24 24" fill="none" xmlns="http://www.w3.org/2000/svg">
<path d="M22.324 6.20045C22.1149 6.05714 21.8742 5.96658 21.6224 5.93648C21.3707 5.90638 21.1154 5.93764 20.8783 6.02759L18.0969 7.25329C18.0377 7.28021 17.9734 7.29414 17.9084 7.29414C17.8433 7.29414 17.779 7.28021 17.7198 7.25329C17.6669 7.21593 17.6236 7.16652 17.5936 7.10914C17.5635 7.05176 17.5475 6.98806 17.5469 6.92329V6.35759C17.547 6.04404 17.4845 5.73363 17.3631 5.44453C17.2417 5.15544 17.0639 4.89347 16.84 4.67396C16.6161 4.45446 16.3506 4.28183 16.0592 4.16618C15.7678 4.05054 15.4562 3.9942 15.1427 4.00047H3.35711C2.73197 4.00047 2.13243 4.24881 1.69038 4.69085C1.24834 5.1329 1 5.73244 1 6.35759L1 17.3575C1 17.9826 1.24834 18.5821 1.69038 19.0242C2.13243 19.4662 2.73197 19.7146 3.35711 19.7146H15.1427C15.7678 19.7146 16.3674 19.4662 16.8094 19.0242C17.2515 18.5821 17.4998 17.9826 17.4998 17.3575V16.8075C17.5004 16.7427 17.5164 16.679 17.5464 16.6216C17.5765 16.5642 17.6198 16.5148 17.6727 16.4775C17.7319 16.4505 17.7962 16.4366 17.8612 16.4366C17.9263 16.4366 17.9906 16.4505 18.0498 16.4775L20.8783 17.7189C21.1154 17.8088 21.3707 17.8401 21.6224 17.81C21.8742 17.7799 22.1149 17.6893 22.324 17.546C22.5366 17.3986 22.7095 17.201 22.8274 16.9707C22.9453 16.7405 23.0045 16.4847 22.9997 16.226V7.489C22.9993 7.23566 22.9377 6.98617 22.82 6.76181C22.7023 6.53744 22.5322 6.34485 22.324 6.20045Z" fill="white"/>
</svg>
