<svg width="36" height="36" viewBox="0 0 36 36" fill="none" xmlns="http://www.w3.org/2000/svg">
<path d="M17.9999 0.856754C13.4533 0.856754 9.09299 2.66287 5.87808 5.87778C2.66317 9.09269 0.857052 13.453 0.857052 17.9996C0.868174 21.0663 1.71484 24.0719 3.30603 26.6935C3.34712 26.7773 3.36848 26.8695 3.36848 26.9629C3.36848 27.0563 3.34712 27.1484 3.30603 27.2323L0.857052 33.4772C0.783576 33.6827 0.765262 33.904 0.803935 34.1188C0.842607 34.3337 0.936916 34.5346 1.07746 34.7017C1.19342 34.8546 1.34652 34.9753 1.52224 35.0525C1.69797 35.1296 1.89049 35.1606 2.08154 35.1425H2.30195L10.653 33.5996C10.7642 33.5623 10.8846 33.5623 10.9958 33.5996C13.3294 34.6627 15.8717 35.1887 18.4355 35.1389C20.9993 35.0891 23.5193 34.4648 25.8098 33.312C28.1003 32.1591 30.1031 30.5071 31.6704 28.4776C33.2378 26.4481 34.3299 24.0928 34.8663 21.5852C35.4027 19.0777 35.3697 16.4817 34.7698 13.9886C34.1699 11.4955 33.0183 9.1687 31.3998 7.17967C29.7814 5.19064 27.7373 3.59003 25.4183 2.49574C23.0992 1.40146 20.5642 0.841375 17.9999 0.856754ZM8.81624 21.0608C8.21078 21.0608 7.61893 20.8813 7.11551 20.5449C6.61209 20.2086 6.21973 19.7305 5.98803 19.1711C5.75634 18.6117 5.69571 17.9962 5.81383 17.4024C5.93195 16.8086 6.2235 16.2631 6.65162 15.835C7.07974 15.4069 7.6252 15.1153 8.21902 14.9972C8.81284 14.8791 9.42835 14.9397 9.98771 15.1714C10.5471 15.4031 11.0252 15.7955 11.3616 16.2989C11.6979 16.8023 11.8775 17.3942 11.8775 17.9996C11.8775 18.8115 11.5549 19.5901 10.9808 20.1642C10.4068 20.7383 9.62812 21.0608 8.81624 21.0608ZM17.9999 21.0608C17.3945 21.0608 16.8026 20.8813 16.2992 20.5449C15.7958 20.2086 15.4034 19.7305 15.1717 19.1711C14.94 18.6117 14.8794 17.9962 14.9975 17.4024C15.1156 16.8086 15.4072 16.2631 15.8353 15.835C16.2634 15.4069 16.8089 15.1153 17.4027 14.9972C17.9965 14.8791 18.612 14.9397 19.1714 15.1714C19.7308 15.4031 20.2089 15.7955 20.5452 16.2989C20.8816 16.8023 21.0611 17.3942 21.0611 17.9996C21.0611 18.8115 20.7386 19.5901 20.1645 20.1642C19.5904 20.7383 18.8118 21.0608 17.9999 21.0608ZM27.1836 21.0608C26.5781 21.0608 25.9863 20.8813 25.4829 20.5449C24.9794 20.2086 24.5871 19.7305 24.3554 19.1711C24.1237 18.6117 24.0631 17.9962 24.1812 17.4024C24.2993 16.8086 24.5908 16.2631 25.019 15.835C25.4471 15.4069 25.9925 15.1153 26.5864 14.9972C27.1802 14.8791 27.7957 14.9397 28.3551 15.1714C28.9144 15.4031 29.3925 15.7955 29.7289 16.2989C30.0653 16.8023 30.2448 17.3942 30.2448 17.9996C30.2448 18.4016 30.1656 18.7997 30.0118 19.1711C29.8579 19.5425 29.6325 19.88 29.3482 20.1642C29.0639 20.4485 28.7265 20.674 28.3551 20.8278C27.9837 20.9817 27.5856 21.0608 27.1836 21.0608Z" fill="white"/>
</svg>
