<svg width="20" height="20" viewBox="0 0 20 20" fill="none" xmlns="http://www.w3.org/2000/svg">
<g clip-path="url(#clip0_598_1494)">
<path d="M10 0C8.02219 0 6.08879 0.58649 4.4443 1.6853C2.79981 2.78412 1.51809 4.3459 0.761209 6.17316C0.00433286 8.00043 -0.193701 10.0111 0.192152 11.9509C0.578004 13.8907 1.53041 15.6725 2.92894 17.0711C4.32746 18.4696 6.10929 19.422 8.0491 19.8078C9.98891 20.1937 11.9996 19.9957 13.8268 19.2388C15.6541 18.4819 17.2159 17.2002 18.3147 15.5557C19.4135 13.9112 20 11.9778 20 10C20 7.34783 18.9464 4.8043 17.0711 2.92893C15.1957 1.05357 12.6522 0 10 0V0ZM5 8.75C5 8.50277 5.07332 8.2611 5.21067 8.05554C5.34802 7.84998 5.54324 7.68976 5.77165 7.59515C6.00006 7.50054 6.25139 7.47579 6.49387 7.52402C6.73634 7.57225 6.95907 7.6913 7.13389 7.86612C7.3087 8.04093 7.42775 8.26366 7.47599 8.50614C7.52422 8.74861 7.49946 8.99995 7.40485 9.22835C7.31024 9.45676 7.15003 9.65198 6.94447 9.78934C6.73891 9.92669 6.49723 10 6.25 10C5.91848 10 5.60054 9.8683 5.36612 9.63388C5.1317 9.39946 5 9.08152 5 8.75ZM10 15.8333C9.11595 15.8333 8.2681 15.4821 7.64298 14.857C7.01786 14.2319 6.66667 13.3841 6.66667 12.5H13.3333C13.3333 13.3841 12.9821 14.2319 12.357 14.857C11.7319 15.4821 10.8841 15.8333 10 15.8333ZM13.75 10C13.5028 10 13.2611 9.92669 13.0555 9.78934C12.85 9.65198 12.6898 9.45676 12.5952 9.22835C12.5005 8.99995 12.4758 8.74861 12.524 8.50614C12.5723 8.26366 12.6913 8.04093 12.8661 7.86612C13.0409 7.6913 13.2637 7.57225 13.5061 7.52402C13.7486 7.47579 14 7.50054 14.2284 7.59515C14.4568 7.68976 14.652 7.84998 14.7893 8.05554C14.9267 8.2611 15 8.50277 15 8.75C15 9.08152 14.8683 9.39946 14.6339 9.63388C14.3995 9.8683 14.0815 10 13.75 10Z" fill="white"/>
</g>
<defs>
<clipPath id="clip0_598_1494">
<rect width="20" height="20" fill="white"/>
</clipPath>
</defs>
</svg>
