<svg width="16" height="11" viewBox="0 0 16 11" fill="none" xmlns="http://www.w3.org/2000/svg">
<path d="M7.99984 0.5C4.6665 0.5 1.81984 2.57333 0.666504 5.5C1.81984 8.42667 4.6665 10.5 7.99984 10.5C11.3332 10.5 14.1798 8.42667 15.3332 5.5C14.1798 2.57333 11.3332 0.5 7.99984 0.5ZM7.99984 8.83333C6.15984 8.83333 4.6665 7.34 4.6665 5.5C4.6665 3.66 6.15984 2.16667 7.99984 2.16667C9.83984 2.16667 11.3332 3.66 11.3332 5.5C11.3332 7.34 9.83984 8.83333 7.99984 8.83333ZM7.99984 3.5C6.89317 3.5 5.99984 4.39333 5.99984 5.5C5.99984 6.60667 6.89317 7.5 7.99984 7.5C9.1065 7.5 9.99984 6.60667 9.99984 5.5C9.99984 4.39333 9.1065 3.5 7.99984 3.5Z" fill="white"/>
</svg>
