<svg width="16" height="16" viewBox="0 0 16 16" fill="none" xmlns="http://www.w3.org/2000/svg">
<path d="M14 16H2C1.47049 15.997 0.963526 15.7853 0.589102 15.4109C0.214677 15.0365 0.00300012 14.5295 0 14L0 2C0.00300012 1.47049 0.214677 0.963526 0.589102 0.589102C0.963526 0.214677 1.47049 0.00300012 2 0H4.85714C5.08355 0.00295996 5.29985 0.0942161 5.45996 0.254324C5.62007 0.414433 5.71133 0.630735 5.71429 0.857143C5.71133 1.08355 5.62007 1.29985 5.45996 1.45996C5.29985 1.62007 5.08355 1.71133 4.85714 1.71429H2C1.92422 1.71429 1.85155 1.74439 1.79797 1.79797C1.74439 1.85155 1.71429 1.92422 1.71429 2V14C1.71429 14.0758 1.74439 14.1484 1.79797 14.202C1.85155 14.2556 1.92422 14.2857 2 14.2857H14C14.0758 14.2857 14.1484 14.2556 14.202 14.202C14.2556 14.1484 14.2857 14.0758 14.2857 14V11.1429C14.2857 10.9155 14.376 10.6975 14.5368 10.5368C14.6975 10.376 14.9155 10.2857 15.1429 10.2857C15.3702 10.2857 15.5882 10.376 15.7489 10.5368C15.9097 10.6975 16 10.9155 16 11.1429V14C15.997 14.5295 15.7853 15.0365 15.4109 15.4109C15.0365 15.7853 14.5295 15.997 14 16Z" fill="white"/>
<path d="M15.1425 0.000230502H8.85679C8.63039 0.00319046 8.41408 0.0944466 8.25398 0.254555C8.09387 0.414663 8.00261 0.630965 7.99965 0.857373C8.00261 1.08378 8.09387 1.30008 8.25398 1.46019C8.41408 1.6203 8.63039 1.71156 8.85679 1.71452H12.3882C12.444 1.71432 12.4986 1.73045 12.5453 1.76091C12.592 1.79137 12.6288 1.83484 12.6511 1.88594C12.6722 1.94014 12.677 1.99935 12.6648 2.05624C12.6526 2.11312 12.624 2.16518 12.5825 2.20594L8.06822 6.77737C7.96763 6.94438 7.92698 7.14068 7.95296 7.3339C7.97895 7.52711 8.07003 7.7057 8.21118 7.84019C8.35232 7.97467 8.5351 8.05702 8.72934 8.07365C8.92359 8.09028 9.1177 8.0402 9.27965 7.93166L13.8511 3.41737C13.8918 3.37587 13.9439 3.34725 14.0008 3.33506C14.0577 3.32287 14.1169 3.32765 14.1711 3.3488C14.2222 3.37111 14.2657 3.40788 14.2961 3.45459C14.3266 3.5013 14.3427 3.5559 14.3425 3.61166V7.14309C14.3425 7.37042 14.4328 7.58843 14.5936 7.74918C14.7543 7.90992 14.9723 8.00023 15.1997 8.00023C15.427 8.00023 15.645 7.90992 15.8057 7.74918C15.9665 7.58843 16.0568 7.37042 16.0568 7.14309V0.857373C16.0554 0.740325 16.0304 0.624763 15.9832 0.517629C15.9361 0.410495 15.8677 0.313999 15.7823 0.23394C15.6969 0.15388 15.5962 0.0919079 15.4863 0.0517461C15.3763 0.0115843 15.2594 -0.00593847 15.1425 0.000230502Z" fill="white"/>
</svg>
