<svg width="20" height="20" viewBox="0 0 20 20" fill="none" xmlns="http://www.w3.org/2000/svg">
<path d="M16.6663 0.833496H3.33301C2.66997 0.833496 2.03408 1.09689 1.56524 1.56573C1.0964 2.03457 0.833008 2.67045 0.833008 3.3335V16.6668C0.833008 17.3299 1.0964 17.9658 1.56524 18.4346C2.03408 18.9034 2.66997 19.1668 3.33301 19.1668H16.6663C17.3294 19.1668 17.9653 18.9034 18.4341 18.4346C18.9029 17.9658 19.1663 17.3299 19.1663 16.6668V3.3335C19.1663 2.67045 18.9029 2.03457 18.4341 1.56573C17.9653 1.09689 17.3294 0.833496 16.6663 0.833496ZM7.91634 5.00016C8.16357 5.00016 8.40524 5.07347 8.6108 5.21083C8.81636 5.34818 8.97658 5.5434 9.07119 5.77181C9.1658 6.00022 9.19055 6.25155 9.14232 6.49403C9.09409 6.7365 8.97504 6.95923 8.80022 7.13405C8.62541 7.30886 8.40268 7.42791 8.1602 7.47614C7.91773 7.52438 7.66639 7.49962 7.43799 7.40501C7.20958 7.3104 7.01436 7.15019 6.877 6.94463C6.73965 6.73906 6.66634 6.49739 6.66634 6.25016C6.66634 5.91864 6.79804 5.6007 7.03246 5.36628C7.26688 5.13186 7.58482 5.00016 7.91634 5.00016ZM15.7705 13.9693C15.7332 14.0297 15.6811 14.0795 15.6191 14.1141C15.5571 14.1486 15.4873 14.1668 15.4163 14.1668H4.58301C4.50863 14.1668 4.43561 14.1469 4.37152 14.1092C4.30744 14.0714 4.25463 14.0172 4.21857 13.9522C4.18252 13.8871 4.16453 13.8136 4.16648 13.7392C4.16844 13.6649 4.19025 13.5924 4.22967 13.5293L6.31301 10.196C6.34793 10.1402 6.39559 10.0934 6.45208 10.0595C6.50856 10.0257 6.57227 10.0057 6.63798 10.0012C6.70368 9.99676 6.76951 10.0079 6.83006 10.0338C6.89062 10.0597 6.94418 10.0996 6.98634 10.1502L8.73217 12.2452L12.1663 7.66683C12.2096 7.61056 12.2661 7.56588 12.3308 7.5368C12.3955 7.50771 12.4664 7.49513 12.5372 7.50016C12.6075 7.50683 12.6751 7.53128 12.7334 7.57122C12.7917 7.61117 12.8389 7.66529 12.8705 7.7285L15.7872 13.5618C15.8196 13.6255 15.835 13.6964 15.8321 13.7678C15.8292 13.8391 15.808 13.9085 15.7705 13.9693Z" fill="white"/>
</svg>
