<svg width="152" height="20" viewBox="0 0 152 20" fill="none" xmlns="http://www.w3.org/2000/svg">
<path d="M0 18.7631V0.251526H11.6059V2.65672H2.79381V8.29686H11.0019V10.6916H2.79381V16.3579H11.7161V18.7631H0Z" fill="white"/>
<path d="M32.3074 18.7626V0.250977H38.9085C40.3474 0.250977 41.5395 0.513553 42.4901 1.0387C43.4353 1.56386 44.1443 2.27806 44.6117 3.18658C45.0843 4.09509 45.3154 5.11388 45.3154 6.24821C45.3154 7.38779 45.0791 8.41184 44.6064 9.3151C44.1338 10.2236 43.4248 10.9378 42.4743 11.4682C41.5238 11.9934 40.3317 12.2612 38.898 12.2612H34.3607V9.89277H38.646C39.5545 9.89277 40.2949 9.73522 40.8621 9.42013C41.4293 9.10504 41.8441 8.66916 42.112 8.12301C42.3745 7.57685 42.5111 6.95192 42.5111 6.25346C42.5111 5.55501 42.3798 4.93533 42.112 4.38917C41.8494 3.84827 41.4293 3.42289 40.8621 3.11305C40.2949 2.80322 39.544 2.65092 38.6144 2.65092H35.1064V18.7678H32.3074V18.7626Z" fill="white"/>
<path d="M48.5767 18.7626V0.250977H60.1825V2.65617H51.3705V8.29631H59.5786V10.691H51.3705V16.3574H60.2928V18.7626H48.5767Z" fill="white"/>
<path d="M63.9268 18.7626V0.250977H70.5279C71.9616 0.250977 73.1537 0.497798 74.1042 0.991441C75.0547 1.48508 75.7637 2.16778 76.2311 3.03953C76.6985 3.91129 76.9348 4.91433 76.9348 6.05391C76.9348 7.18823 76.6985 8.18077 76.2258 9.04202C75.7532 9.89802 75.039 10.5702 74.0937 11.0429C73.1432 11.5207 71.9511 11.7571 70.5174 11.7571H65.518V9.35186H70.2653C71.1686 9.35186 71.9038 9.22057 72.4762 8.96325C73.0434 8.70592 73.4635 8.32782 73.7261 7.83417C73.9887 7.34053 74.1252 6.74711 74.1252 6.05391C74.1252 5.35545 73.9887 4.75153 73.7208 4.23688C73.453 3.72223 73.0329 3.33362 72.4657 3.05529C71.8986 2.78221 71.1528 2.64567 70.2286 2.64567H66.7206V18.7626H63.9268ZM73.0644 10.4127L77.6385 18.7678H74.4561L69.9713 10.4127H73.0644Z" fill="white"/>
<path d="M83.1368 0.250977V18.7626H80.343V0.250977H83.1368Z" fill="white"/>
<path d="M87.2014 18.7626V0.250977H98.8073V2.65617H89.9952V8.29631H98.2033V10.691H89.9952V16.3574H98.9176V18.7626H87.2014Z" fill="white"/>
<path d="M117.492 0.250977V18.7626H114.924L105.519 5.18741H105.346V18.7626H102.552V0.250977H105.136L114.557 13.8472H114.73V0.250977H117.492Z" fill="white"/>
<path d="M136.939 6.27447H134.119C134.008 5.67054 133.809 5.14014 133.515 4.68326C133.221 4.22637 132.858 3.83776 132.428 3.51742C131.997 3.19708 131.524 2.95551 130.994 2.79271C130.469 2.62991 129.907 2.55114 129.319 2.55114C128.253 2.55114 127.297 2.81897 126.457 3.35462C125.616 3.89028 124.955 4.67801 124.466 5.71255C123.978 6.7471 123.736 8.01272 123.736 9.5094C123.736 11.0166 123.978 12.2875 124.466 13.3273C124.949 14.3618 125.616 15.1495 126.462 15.6747C127.307 16.2051 128.253 16.4729 129.308 16.4729C129.891 16.4729 130.448 16.3941 130.978 16.2313C131.509 16.0686 131.981 15.8322 132.412 15.5224C132.842 15.2126 133.205 14.8239 133.504 14.3723C133.803 13.9154 134.008 13.3955 134.124 12.8021L136.944 12.8126C136.792 13.7211 136.503 14.5561 136.072 15.3228C135.641 16.0843 135.09 16.7407 134.418 17.2922C133.746 17.8436 132.979 18.2689 132.118 18.5683C131.256 18.8676 130.316 19.0199 129.298 19.0199C127.696 19.0199 126.268 18.6418 125.012 17.8751C123.757 17.1136 122.775 16.0213 122.051 14.5981C121.331 13.175 120.969 11.4787 120.969 9.5094C120.969 7.53483 121.331 5.83334 122.056 4.41543C122.781 2.99752 123.768 1.9052 125.023 1.14373C126.278 0.382262 127.701 -0.00109863 129.298 -0.00109863C130.28 -0.00109863 131.199 0.140692 132.049 0.419023C132.9 0.697353 133.667 1.11222 134.35 1.64788C135.032 2.18879 135.594 2.84522 136.041 3.6172C136.482 4.39442 136.781 5.27668 136.939 6.27447Z" fill="white"/>
<path d="M140.284 18.7626V0.250977H151.89V2.65617H143.078V8.29631H151.286V10.691H143.078V16.3574H152V18.7626H140.284Z" fill="white"/>
<path d="M25.3438 18.9043C25.2493 18.8676 25.1495 18.8728 25.0497 18.8518C24.7189 18.7836 24.4195 18.6628 24.1464 18.4685C23.7736 18.2059 23.5425 17.8435 23.343 17.4497C23.1907 17.1503 23.0699 16.8405 22.9648 16.5254C22.8388 16.1315 22.7233 15.7377 22.634 15.3333C22.5605 15.0235 22.4764 14.7136 22.4082 14.4038C22.3347 14.0782 22.2559 13.7578 22.1771 13.4375C22.0931 13.0909 22.0196 12.7443 21.9408 12.403C21.8725 12.1141 21.799 11.8253 21.7307 11.5365C21.694 11.5417 21.6887 11.5732 21.6782 11.5995C21.3631 12.2297 21.048 12.8651 20.7329 13.4953C20.2603 14.4458 19.7877 15.3911 19.315 16.3416C18.9107 17.1503 18.5116 17.9591 18.1124 18.7678C18.0809 18.8256 18.0547 18.8518 17.9864 18.8518C17.2459 18.8466 16.5055 18.8518 15.765 18.8518C15.7388 18.8518 15.7125 18.8518 15.6705 18.8518C15.7387 18.71 15.807 18.5735 15.8753 18.437C16.2114 17.7648 16.5527 17.0926 16.8888 16.4256C17.33 15.5539 17.7711 14.6821 18.207 13.8051C18.6428 12.9386 19.0787 12.0669 19.5146 11.2004C19.9557 10.3234 20.3968 9.4516 20.838 8.5746C20.8695 8.51683 20.8905 8.45381 20.9273 8.39605C20.985 8.30152 20.9325 8.20699 20.9115 8.11772C20.8485 7.83939 20.7802 7.56105 20.7172 7.28272C20.6489 6.98339 20.5754 6.6893 20.5019 6.38997C20.4179 6.03811 20.3443 5.68626 20.2551 5.33966C20.1815 5.05608 20.1133 4.76725 20.0345 4.48366C19.9662 4.23684 19.898 3.99002 19.8139 3.74845C19.6931 3.3966 19.5671 3.05 19.357 2.73491C19.1365 2.40406 18.8266 2.19925 18.4328 2.13098C18.3645 2.12048 18.2962 2.08897 18.2227 2.09947C18.1912 2.08372 18.1597 2.09947 18.1334 2.08897C18.0599 2.08897 17.9917 2.08897 17.9181 2.08897C17.8919 2.09947 17.8604 2.08372 17.8341 2.09947C17.5138 2.12048 17.2302 2.23601 16.9781 2.44082C16.6105 2.74541 16.4109 3.15503 16.2586 3.59616C16.1589 3.87974 16.1011 4.17382 16.0486 4.46791C16.0381 4.52042 16.0171 4.52042 15.9803 4.52042C15.8333 4.52042 15.6862 4.52042 15.5339 4.52042C15.5182 4.47841 15.5234 4.43115 15.5287 4.38914C15.5287 4.26835 15.5339 4.15282 15.5339 4.03203C15.5497 3.99527 15.5339 3.94801 15.5444 3.91125C15.5444 3.86398 15.5497 3.81672 15.5497 3.76946C15.5655 3.7432 15.5497 3.71169 15.5602 3.68018C15.5812 3.35459 15.6285 3.03424 15.702 2.7139C15.8333 2.13098 16.0276 1.56907 16.3637 1.06492C16.5737 0.749833 16.8416 0.49776 17.1777 0.329711C17.4665 0.18792 17.7763 0.124902 18.0967 0.11965C18.1492 0.109147 18.207 0.114399 18.2595 0.11965C18.5693 0.130153 18.8739 0.18792 19.1575 0.32446C19.5093 0.492508 19.7667 0.760336 19.9662 1.09643C20.2656 1.61108 20.4599 2.16774 20.6332 2.72966C20.8065 3.29157 20.943 3.86924 21.0795 4.44165C21.2003 4.95105 21.3211 5.46045 21.4472 5.96459C21.5154 6.24817 21.5837 6.53701 21.6572 6.82059C21.6625 6.84685 21.673 6.87311 21.6782 6.89936C21.7202 6.87836 21.7255 6.83634 21.7412 6.80484C22.0353 6.22717 22.3294 5.64425 22.6235 5.06658C22.8546 4.60445 23.0909 4.14757 23.3272 3.68543C23.5478 3.2443 23.7683 2.80318 23.9941 2.3673C24.22 1.92092 24.451 1.46929 24.6768 1.02291C24.7871 0.807599 24.8974 0.587036 25.0024 0.366472C25.0182 0.329711 25.0444 0.308705 25.0865 0.308705C25.8584 0.308705 26.6304 0.308705 27.4076 0.308705C27.4129 0.308705 27.4181 0.308705 27.4339 0.313957C27.3656 0.439993 27.3026 0.56603 27.2396 0.686814C26.9297 1.30124 26.6199 1.91567 26.3101 2.5301C25.974 3.19704 25.6326 3.86398 25.2965 4.52568C24.9604 5.18212 24.6243 5.84381 24.2935 6.50025C23.9574 7.15669 23.6265 7.81838 23.2904 8.47482C23.0384 8.97371 22.7863 9.47261 22.5237 9.9715C22.4712 10.0713 22.4659 10.1553 22.4922 10.2603C22.6603 10.9535 22.8178 11.6467 22.9858 12.3347C23.1014 12.8231 23.2222 13.3115 23.3377 13.8051C23.4427 14.262 23.5635 14.7136 23.7263 15.1548C23.8471 15.4803 23.9836 15.8007 24.1884 16.0843C24.4353 16.4204 24.7766 16.6147 25.16 16.7407C25.3385 16.7985 25.5276 16.8352 25.7166 16.8247C25.8112 16.8352 25.9057 16.8352 26.0002 16.8247C26.4151 16.8195 26.7932 16.7092 27.1345 16.4624C27.4339 16.2471 27.6229 15.9582 27.7542 15.6221C27.854 15.3701 27.9013 15.1127 27.9485 14.8502C27.959 14.7871 27.959 14.7241 27.9643 14.6611C27.98 14.6349 27.9643 14.6033 27.9748 14.5718C27.9748 14.5298 27.9853 14.5036 28.0378 14.5088C28.1691 14.5141 28.3004 14.5141 28.4317 14.5088C28.4789 14.5088 28.4894 14.5246 28.4894 14.5718C28.4842 14.6716 28.4894 14.7661 28.4894 14.8659C28.4737 14.9132 28.4894 14.9604 28.4789 15.0025C28.4789 15.0445 28.4737 15.0865 28.4737 15.1285C28.4579 15.1548 28.4737 15.1863 28.4632 15.2178C28.4054 15.8007 28.3056 16.3784 28.1008 16.9298C27.9223 17.4077 27.6755 17.8435 27.3131 18.2059C27.0453 18.479 26.7302 18.6785 26.3626 18.7941C26.2103 18.8413 26.0527 18.8781 25.8899 18.8833C25.8794 18.8833 25.8637 18.8833 25.8584 18.8991C25.8479 18.8991 25.8374 18.8991 25.8269 18.8991C25.7954 18.8833 25.7639 18.8938 25.7324 18.8886C25.6431 18.8938 25.5538 18.8781 25.4646 18.8991C25.4226 18.9043 25.3858 18.9043 25.3438 18.9043Z" fill="white"/>
</svg>
