<svg width="80" height="80" viewBox="0 0 80 80" fill="none" xmlns="http://www.w3.org/2000/svg">
<g filter="url(#filter0_b_162_47775)">
<circle cx="40" cy="40" r="40" fill="white" fill-opacity="0.2"/>
<circle cx="40" cy="40" r="39.5" stroke="white" stroke-opacity="0.2"/>
</g>
<g clip-path="url(#clip0_162_47775)">
<path d="M39.9999 22.8568C35.4533 22.8568 31.093 24.6629 27.8781 27.8778C24.6632 31.0927 22.8571 35.453 22.8571 39.9996C22.8682 43.0663 23.7148 46.0719 25.306 48.6935C25.3471 48.7773 25.3685 48.8695 25.3685 48.9629C25.3685 49.0563 25.3471 49.1484 25.306 49.2323L22.8571 55.4772C22.7836 55.6827 22.7653 55.904 22.8039 56.1188C22.8426 56.3337 22.9369 56.5346 23.0775 56.7017C23.1934 56.8546 23.3465 56.9753 23.5222 57.0525C23.698 57.1296 23.8905 57.1606 24.0815 57.1425H24.3019L32.653 55.5996C32.7642 55.5623 32.8846 55.5623 32.9958 55.5996C35.3294 56.6627 37.8717 57.1887 40.4355 57.1389C42.9993 57.0891 45.5193 56.4648 47.8098 55.312C50.1003 54.1591 52.1031 52.5071 53.6704 50.4776C55.2378 48.4481 56.3299 46.0928 56.8663 43.5852C57.4027 41.0777 57.3697 38.4817 56.7698 35.9886C56.1699 33.4955 55.0183 31.1687 53.3998 29.1797C51.7814 27.1906 49.7373 25.59 47.4183 24.4957C45.0992 23.4015 42.5642 22.8414 39.9999 22.8568ZM30.8162 43.0608C30.2108 43.0608 29.6189 42.8813 29.1155 42.5449C28.6121 42.2086 28.2197 41.7305 27.988 41.1711C27.7563 40.6117 27.6957 39.9962 27.8138 39.4024C27.9319 38.8086 28.2235 38.2631 28.6516 37.835C29.0797 37.4069 29.6252 37.1153 30.219 36.9972C30.8128 36.8791 31.4283 36.9397 31.9877 37.1714C32.5471 37.4031 33.0252 37.7955 33.3616 38.2989C33.6979 38.8023 33.8775 39.3942 33.8775 39.9996C33.8775 40.8115 33.5549 41.5901 32.9808 42.1642C32.4068 42.7383 31.6281 43.0608 30.8162 43.0608ZM39.9999 43.0608C39.3945 43.0608 38.8026 42.8813 38.2992 42.5449C37.7958 42.2086 37.4034 41.7305 37.1717 41.1711C36.94 40.6117 36.8794 39.9962 36.9975 39.4024C37.1156 38.8086 37.4072 38.2631 37.8353 37.835C38.2634 37.4069 38.8089 37.1153 39.4027 36.9972C39.9965 36.8791 40.612 36.9397 41.1714 37.1714C41.7308 37.4031 42.2089 37.7955 42.5452 38.2989C42.8816 38.8023 43.0611 39.3942 43.0611 39.9996C43.0611 40.8115 42.7386 41.5901 42.1645 42.1642C41.5904 42.7383 40.8118 43.0608 39.9999 43.0608ZM49.1836 43.0608C48.5781 43.0608 47.9863 42.8813 47.4829 42.5449C46.9794 42.2086 46.5871 41.7305 46.3554 41.1711C46.1237 40.6117 46.0631 39.9962 46.1812 39.4024C46.2993 38.8086 46.5908 38.2631 47.019 37.835C47.4471 37.4069 47.9925 37.1153 48.5864 36.9972C49.1802 36.8791 49.7957 36.9397 50.3551 37.1714C50.9144 37.4031 51.3925 37.7955 51.7289 38.2989C52.0653 38.8023 52.2448 39.3942 52.2448 39.9996C52.2448 40.4016 52.1656 40.7997 52.0118 41.1711C51.8579 41.5425 51.6325 41.88 51.3482 42.1642C51.0639 42.4485 50.7265 42.674 50.3551 42.8278C49.9837 42.9817 49.5856 43.0608 49.1836 43.0608Z" fill="white"/>
</g>
<circle cx="54" cy="26" r="6" fill="#FF3535"/>
<defs>
<filter id="filter0_b_162_47775" x="-12" y="-12" width="104" height="104" filterUnits="userSpaceOnUse" color-interpolation-filters="sRGB">
<feFlood flood-opacity="0" result="BackgroundImageFix"/>
<feGaussianBlur in="BackgroundImage" stdDeviation="6"/>
<feComposite in2="SourceAlpha" operator="in" result="effect1_backgroundBlur_162_47775"/>
<feBlend mode="normal" in="SourceGraphic" in2="effect1_backgroundBlur_162_47775" result="shape"/>
</filter>
<clipPath id="clip0_162_47775">
<rect width="34.2857" height="34.2857" fill="white" transform="translate(22.8574 22.8569)"/>
</clipPath>
</defs>
</svg>
