<svg width="24" height="24" viewBox="0 0 24 24" fill="none" xmlns="http://www.w3.org/2000/svg">
<path d="M17 19.5289H7V21.1818H17V19.5289Z" fill="white"/>
<path d="M3.66667 10.2967V15.3967H20.3333V4.65289H9.3575L11.0242 3H21.1667C21.3877 3 21.5996 3.08707 21.7559 3.24206C21.9122 3.39705 22 3.60726 22 3.82645V17.0496C22 17.2688 21.9122 17.479 21.7559 17.634C21.5996 17.789 21.3877 17.876 21.1667 17.876H2.83333C2.61232 17.876 2.40036 17.789 2.24408 17.634C2.0878 17.479 2 17.2688 2 17.0496V11.9496L3.66667 10.2967Z" fill="white"/>
<path d="M2 3H8.66667L5.9225 5.72149L9.25583 9.02727L8.0775 10.1959L4.74417 6.89008L2 9.61157V3Z" fill="white"/>
</svg>
