<svg width="24" height="24" viewBox="0 0 24 24" fill="none" xmlns="http://www.w3.org/2000/svg">
<path d="M2 3H8.66667L5.9225 5.74417L9.25583 9.0775L8.0775 10.2558L4.74417 6.9225L2 9.66667V3Z" fill="white"/>
<path d="M8.035 19.6666H17V21.3333H7V20.7016L8.035 19.6666Z" fill="white"/>
<path d="M3.66667 10.3574V15.4999H9.845L7.345 17.9999H2.83333C2.61232 17.9999 2.40036 17.9121 2.24408 17.7558C2.0878 17.5996 2 17.3876 2 17.1666V12.0241L3.66667 10.3574Z" fill="white"/>
<path d="M20.3333 15.5V7.36833L22 5.70166V17.1667C22 17.3877 21.9122 17.5996 21.7559 17.7559C21.5996 17.9122 21.3877 18 21.1667 18H9.70166L12.2017 15.5H20.3333Z" fill="white"/>
<path d="M3.91093 19.0775L18.3218 4.66667H9.3576L11.0243 3H20.3334C20.4982 3.00004 20.6593 3.04893 20.7963 3.1405C20.9333 3.23207 21.0401 3.3622 21.1032 3.51445C21.1662 3.6667 21.1827 3.83423 21.1506 3.99586C21.1184 4.15749 21.0391 4.30596 20.9226 4.4225L5.08926 20.2558C4.93209 20.4076 4.72159 20.4916 4.50309 20.4897C4.2846 20.4878 4.07559 20.4002 3.92108 20.2457C3.76657 20.0912 3.67893 19.8822 3.67703 19.6637C3.67513 19.4452 3.75913 19.2347 3.91093 19.0775Z" fill="white"/>
</svg>
