<svg width="20" height="19" viewBox="0 0 20 19" fill="none" xmlns="http://www.w3.org/2000/svg">
<path d="M15 16.5289H5V18.1818H15V16.5289Z" fill="white"/>
<path d="M1.66667 7.29669V12.3967H18.3333V1.65289H7.3575L9.02417 0H19.1667C19.3877 0 19.5996 0.0870717 19.7559 0.24206C19.9122 0.397049 20 0.607259 20 0.826446V14.0496C20 14.2688 19.9122 14.479 19.7559 14.634C19.5996 14.789 19.3877 14.876 19.1667 14.876H0.833333C0.61232 14.876 0.400358 14.789 0.244078 14.634C0.0877974 14.479 0 14.2688 0 14.0496V8.94959L1.66667 7.29669Z" fill="white"/>
<path d="M0 0H6.66667L3.9225 2.72149L7.25583 6.02727L6.0775 7.19587L2.74417 3.89008L0 6.61157V0Z" fill="white"/>
</svg>
