<svg width="22" height="22" viewBox="0 0 22 22" fill="none" xmlns="http://www.w3.org/2000/svg">
<path d="M13.6193 21.9999C13.4246 21.9998 13.2338 21.9457 13.0682 21.8434C12.9025 21.7412 12.7686 21.5949 12.6813 21.4209L9.57227 15.1999C9.48841 15.0317 9.45114 14.8442 9.46433 14.6567C9.47752 14.4692 9.54069 14.2887 9.64727 14.1339L14.6673 7.33393L7.86727 12.3519C7.71267 12.4585 7.53232 12.5217 7.34501 12.5349C7.1577 12.5481 6.97027 12.5108 6.80227 12.4269L0.579267 9.31793C0.397187 9.22616 0.24583 9.08328 0.143744 8.90677C0.0416572 8.73027 -0.00672456 8.52783 0.00452687 8.32424C0.0157783 8.12065 0.0861742 7.92477 0.207088 7.76059C0.328003 7.59641 0.494183 7.47107 0.685267 7.39993L20.5903 0.06393C20.778 -0.00545316 20.9818 -0.0195568 21.1773 0.0232902C21.3728 0.0661373 21.552 0.164139 21.6935 0.305683C21.8351 0.447227 21.9331 0.62638 21.9759 0.821914C22.0188 1.01745 22.0047 1.22117 21.9353 1.40893L14.6003 21.3149C14.5297 21.5067 14.4044 21.6736 14.24 21.7949C14.0756 21.9163 13.8793 21.9869 13.6753 21.9979L13.6193 21.9999Z" fill="white"/>
</svg>
