<svg width="12" height="13" viewBox="0 0 12 13" fill="none" xmlns="http://www.w3.org/2000/svg">
<path d="M10.4358 7.2265C10.4767 6.98645 10.4981 6.7435 10.4998 6.5C10.4981 6.2565 10.4767 6.01355 10.4358 5.7735L11.4858 4.759C11.5659 4.68153 11.6178 4.57953 11.6333 4.4692C11.6488 4.35887 11.627 4.24653 11.5713 4.15L10.8213 2.85C10.7649 2.75383 10.6782 2.67906 10.5749 2.63735C10.4715 2.59565 10.3572 2.58937 10.2498 2.6195L8.84982 3.0195C8.47077 2.71076 8.04403 2.46573 7.58632 2.294L7.23482 0.879C7.20783 0.770784 7.14543 0.674699 7.05755 0.606025C6.96967 0.537351 6.86135 0.500031 6.74982 0.5H5.24982C5.13829 0.500031 5.02997 0.537351 4.94209 0.606025C4.85421 0.674699 4.79181 0.770784 4.76482 0.879L4.41132 2.294C3.95431 2.46593 3.52826 2.71095 3.14982 3.0195L1.74982 2.6195C1.64248 2.58946 1.52821 2.59578 1.42484 2.63748C1.32146 2.67917 1.23478 2.75389 1.17832 2.85L0.428319 4.15C0.372558 4.24658 0.350685 4.35903 0.366177 4.46946C0.381669 4.5799 0.433637 4.68199 0.513819 4.7595L1.56382 5.774C1.52296 6.01388 1.50156 6.25667 1.49982 6.5C1.50153 6.7435 1.52294 6.98645 1.56382 7.2265L0.513819 8.241C0.433755 8.31847 0.38186 8.42047 0.36637 8.5308C0.35088 8.64113 0.372683 8.75347 0.428319 8.85L1.17832 10.15C1.22224 10.2261 1.28544 10.2892 1.36154 10.3331C1.43765 10.377 1.52397 10.4001 1.61182 10.4C1.65829 10.3998 1.70453 10.3934 1.74932 10.381L3.14932 9.981C3.52837 10.2897 3.9551 10.5348 4.41282 10.7065L4.76632 12.1215C4.79334 12.2294 4.85556 12.3252 4.94312 12.3937C5.03069 12.4623 5.13861 12.4997 5.24982 12.5H6.74982C6.86135 12.5 6.96967 12.4626 7.05755 12.394C7.14543 12.3253 7.20783 12.2292 7.23482 12.121L7.58832 10.706C8.04533 10.5341 8.47138 10.289 8.84982 9.9805L10.2498 10.3805C10.2946 10.3929 10.3408 10.3993 10.3873 10.3995C10.4752 10.3996 10.5615 10.3765 10.6376 10.3326C10.7137 10.2887 10.7769 10.2256 10.8208 10.1495L11.5708 8.8495C11.6266 8.75292 11.6485 8.64047 11.633 8.53004C11.6175 8.4196 11.5655 8.31751 11.4853 8.24L10.4358 7.2265ZM5.99982 8.5C5.60426 8.5 5.21758 8.3827 4.88868 8.16294C4.55978 7.94318 4.30344 7.63082 4.15206 7.26537C4.00068 6.89991 3.96108 6.49778 4.03825 6.10982C4.11542 5.72186 4.3059 5.36549 4.58561 5.08579C4.86531 4.80608 5.22168 4.6156 5.60964 4.53843C5.9976 4.46126 6.39973 4.50087 6.76519 4.65224C7.13064 4.80362 7.443 5.05996 7.66276 5.38886C7.88252 5.71776 7.99982 6.10444 7.99982 6.5C7.99982 7.03043 7.78911 7.53914 7.41403 7.91421C7.03896 8.28929 6.53025 8.5 5.99982 8.5Z" fill="white"/>
</svg>
