<svg width="24" height="24" viewBox="0 0 24 24" fill="none" xmlns="http://www.w3.org/2000/svg">
<path d="M13.9334 2.81592C13.6457 2.67377 13.3001 2.70357 13.0422 2.89678L6.46002 7.83366H2.48754C2.01683 7.83366 1.63635 8.21414 1.63635 8.68485V15.4943C1.63635 15.965 2.01683 16.3455 2.48754 16.3455H6.46002L13.0422 21.2824C13.192 21.3956 13.3725 21.4526 13.5529 21.4526C13.6823 21.4526 13.8134 21.4228 13.9334 21.3633C14.222 21.2186 14.4041 20.924 14.4041 20.6014V3.57773C14.4041 3.25513 14.222 2.96062 13.9334 2.81592Z" fill="white"/>
<path d="M17.16 8.47801L16.5582 7.87622L15.3546 9.0798L15.9564 9.68158C17.2843 11.0094 17.2843 13.1689 15.9564 14.4959L15.3546 15.0977L16.5582 16.3013L17.16 15.6995C19.1509 13.7085 19.1509 10.4689 17.16 8.47801Z" fill="white"/>
<path d="M18.9681 5.46936L17.7645 6.67294L18.3663 7.27472C21.0212 9.92957 21.0212 14.2502 18.3663 16.905L17.7645 17.5068L18.9681 18.7104L19.5699 18.1086C22.8887 14.7898 22.8887 9.38992 19.5699 6.0703L18.9681 5.46936Z" fill="white"/>
</svg>
