<svg width="24" height="24" viewBox="0 0 24 24" fill="none" xmlns="http://www.w3.org/2000/svg">
<g clip-path="url(#clip0_172_47034)">
<path d="M10.567 17.6749L17.4 22.7999C17.576 22.9329 17.788 22.9999 18 22.9999C18.152 22.9999 18.306 22.9649 18.447 22.8949C18.786 22.7249 19 22.3789 19 21.9999V9.24194L10.567 17.6749Z" fill="white"/>
<path d="M2 17H7L19 5V2C19 1.621 18.786 1.275 18.447 1.105C18.109 0.937998 17.703 0.972998 17.4 1.2L9.667 7H2C1.447 7 1 7.447 1 8V16C1 16.553 1.447 17 2 17Z" fill="white"/>
<path d="M0.999762 23.9998C0.743762 23.9998 0.487762 23.9018 0.292762 23.7068C-0.0982383 23.3158 -0.0982383 22.6838 0.292762 22.2928L22.2928 0.292762C22.6838 -0.0982383 23.3158 -0.0982383 23.7068 0.292762C24.0978 0.683762 24.0978 1.31576 23.7068 1.70676L1.70676 23.7068C1.51176 23.9018 1.25576 23.9998 0.999762 23.9998Z" fill="white"/>
</g>
<defs>
<clipPath id="clip0_172_47034">
<rect width="24" height="24" fill="white"/>
</clipPath>
</defs>
</svg>
