<svg width="16" height="14" viewBox="0 0 16 14" fill="none" xmlns="http://www.w3.org/2000/svg">
<path d="M16 2.06678C15.4 2.33345 14.8 2.53345 14.1333 2.60011C14.8 2.20011 15.3333 1.53345 15.6 0.800114C14.9333 1.20011 14.2667 1.46678 13.5333 1.60011C12.9333 0.933447 12.0667 0.533447 11.1333 0.533447C9.33333 0.533447 7.86667 2.00011 7.86667 3.80011C7.86667 4.06678 7.86667 4.33345 7.93333 4.53345C5.13333 4.40011 2.73333 3.06678 1.13333 1.06678C0.8 1.60011 0.666667 2.13345 0.666667 2.73345C0.666667 3.86678 1.26667 4.86678 2.13333 5.46678C1.6 5.46678 1.06667 5.33345 0.666667 5.06678C0.666667 5.06678 0.666667 5.06678 0.666667 5.13345C0.666667 6.73345 1.8 8.06678 3.26667 8.33345C3 8.40011 2.73333 8.46678 2.4 8.46678C2.2 8.46678 2 8.46678 1.8 8.40011C2.2 9.73345 3.4 10.6668 4.86667 10.6668C3.73333 11.5334 2.33333 12.0668 0.8 12.0668C0.533333 12.0668 0.266667 12.0668 0 12.0001C1.46667 12.9334 3.2 13.4668 5 13.4668C11.0667 13.4668 14.3333 8.46678 14.3333 4.13345C14.3333 4.00011 14.3333 3.86678 14.3333 3.73345C15 3.26678 15.5333 2.66678 16 2.06678Z" fill="white"/>
</svg>
