<svg width="17" height="18" viewBox="0 0 17 18" fill="none" xmlns="http://www.w3.org/2000/svg">
<path d="M8.38379 9C10.8 9 12.7588 7.04125 12.7588 4.625C12.7588 2.20875 10.8 0.25 8.38379 0.25C5.96754 0.25 4.00879 2.20875 4.00879 4.625C4.00879 7.04125 5.96754 9 8.38379 9Z" fill="white"/>
<path d="M16.2343 16.9125C15.6609 15.2887 14.598 13.8826 13.1921 12.888C11.7862 11.8934 10.1065 11.3594 8.38432 11.3594C6.66218 11.3594 4.98243 11.8934 3.57651 12.888C2.17059 13.8826 1.10771 15.2887 0.534316 16.9125C0.502403 17.0078 0.492571 17.1091 0.505565 17.2087C0.518558 17.3083 0.554037 17.4036 0.609316 17.4875C0.668837 17.5677 0.746033 17.6331 0.834913 17.6786C0.923793 17.7241 1.02197 17.7486 1.12182 17.75H15.6468C15.7467 17.7486 15.8448 17.7241 15.9337 17.6786C16.0226 17.6331 16.0998 17.5677 16.1593 17.4875C16.2146 17.4036 16.2501 17.3083 16.2631 17.2087C16.2761 17.1091 16.2662 17.0078 16.2343 16.9125Z" fill="white"/>
</svg>
